<svg width="103" height="58" viewBox="0 0 103 58" fill="none" xmlns="http://www.w3.org/2000/svg">
<g clip-path="url(#clip0_469_5700)">
<path d="M103 0H0V58H103V0Z" fill="url(#paint0_linear_469_5700)"/>
<path d="M19.1504 41.707C19.1504 41.6761 19.1605 41.6511 19.1796 41.6311C19.1987 41.6122 19.2238 41.6022 19.256 41.6022H19.5135C19.5427 41.6022 19.5668 41.6122 19.5859 41.6311C19.605 41.6501 19.6151 41.6751 19.6151 41.707V43.7526H21.5846V41.707C21.5846 41.6761 21.5946 41.6511 21.6137 41.6311C21.6329 41.6122 21.658 41.6022 21.6902 41.6022H21.9437C21.9728 41.6022 21.997 41.6122 22.0181 41.6311C22.0382 41.6501 22.0493 41.6751 22.0493 41.707V46.5322C22.0493 46.5632 22.0392 46.5882 22.0181 46.6081C21.998 46.6271 21.9728 46.6371 21.9437 46.6371H21.6902C21.659 46.6371 21.6339 46.6271 21.6137 46.6081C21.5946 46.5892 21.5846 46.5642 21.5846 46.5322V44.1481H19.6151V46.5322C19.6151 46.5632 19.605 46.5882 19.5859 46.6081C19.5668 46.6271 19.5427 46.6371 19.5135 46.6371H19.256C19.2248 46.6371 19.1997 46.6271 19.1796 46.6081C19.1605 46.5892 19.1504 46.5642 19.1504 46.5322V41.707Z" fill="white"/>
<path d="M24.4733 46.723C24.1977 46.723 23.9563 46.665 23.7491 46.5482C23.5419 46.4323 23.3679 46.2625 23.228 46.0408C23.0882 45.8191 22.9826 45.5474 22.9132 45.2248C22.8428 44.9022 22.8086 44.5336 22.8086 44.1191C22.8086 43.7046 22.8438 43.339 22.9152 43.0174C22.9866 42.6948 23.0922 42.4221 23.2321 42.1994C23.3719 41.9767 23.5459 41.8069 23.7531 41.691C23.9603 41.5752 24.2007 41.5162 24.4733 41.5162C24.7459 41.5162 24.9863 41.5742 25.1935 41.691C25.4007 41.8069 25.5747 41.9767 25.7145 42.1994C25.8543 42.4221 25.96 42.6948 26.0314 43.0174C26.1028 43.34 26.138 43.7076 26.138 44.1191C26.138 44.5306 26.1028 44.9022 26.0334 45.2248C25.963 45.5474 25.8584 45.8191 25.7185 46.0408C25.5787 46.2625 25.4047 46.4313 25.1975 46.5482C24.9903 46.665 24.7489 46.723 24.4733 46.723ZM24.4733 46.3204C24.8646 46.3204 25.1613 46.1407 25.3645 45.7811C25.5677 45.4215 25.6683 44.8682 25.6683 44.1201C25.6683 43.372 25.5667 42.8247 25.3645 42.4621C25.1623 42.0995 24.8646 41.9187 24.4733 41.9187C24.082 41.9187 23.7853 42.0995 23.5821 42.4621C23.3789 42.8247 23.2783 43.377 23.2783 44.1201C23.2783 44.8632 23.3799 45.4215 23.5821 45.7811C23.7853 46.1407 24.082 46.3204 24.4733 46.3204Z" fill="white"/>
<path d="M28.5943 44.9252C28.5078 44.9252 28.4485 44.8852 28.4173 44.8063L27.3491 42.0986V46.5322C27.3491 46.5632 27.339 46.5882 27.3179 46.6081C27.2978 46.6271 27.2726 46.6371 27.2434 46.6371H27.0041C26.9749 46.6371 26.9507 46.6271 26.9296 46.6081C26.9095 46.5892 26.8984 46.5642 26.8984 46.5322V41.707C26.8984 41.6761 26.9085 41.6511 26.9296 41.6311C26.9497 41.6122 26.9749 41.6022 27.0041 41.6022H27.4969C27.5382 41.6022 27.5704 41.6112 27.5925 41.6291C27.6156 41.6471 27.6327 41.6731 27.6448 41.706L28.7311 44.4068L29.8174 41.706C29.8295 41.6731 29.8466 41.6471 29.8697 41.6291C29.8929 41.6112 29.9251 41.6022 29.9653 41.6022H30.4582C30.4873 41.6022 30.5115 41.6122 30.5326 41.6311C30.5527 41.6501 30.5638 41.6751 30.5638 41.707V46.5322C30.5638 46.5632 30.5537 46.5882 30.5326 46.6081C30.5125 46.6271 30.4873 46.6371 30.4582 46.6371H30.2188C30.1896 46.6371 30.1655 46.6271 30.1443 46.6081C30.1242 46.5892 30.1132 46.5642 30.1132 46.5322V42.0986L29.0449 44.8063C29.0107 44.8852 28.9524 44.9252 28.8679 44.9252H28.5923H28.5943Z" fill="white"/>
<path d="M33.9067 46.2416C33.9359 46.2416 33.96 46.2515 33.9811 46.2705C34.0012 46.2895 34.0123 46.3135 34.0123 46.3424V46.5332C34.0123 46.5642 34.0022 46.5891 33.9811 46.6091C33.961 46.6281 33.9359 46.6381 33.9067 46.6381H31.6837C31.6546 46.6381 31.6304 46.6281 31.6093 46.6091C31.5892 46.5901 31.5781 46.5652 31.5781 46.5332V41.708C31.5781 41.6771 31.5882 41.6521 31.6093 41.6321C31.6294 41.6131 31.6546 41.6031 31.6837 41.6031H33.8564C33.8876 41.6031 33.9127 41.6131 33.9328 41.6321C33.952 41.6511 33.962 41.6761 33.962 41.708V41.8988C33.962 41.9278 33.952 41.9517 33.9328 41.9707C33.9137 41.9897 33.8886 41.9997 33.8564 41.9997H32.0418V43.8474H33.7256C33.7548 43.8474 33.7789 43.8574 33.8001 43.8784C33.8202 43.8984 33.8312 43.9234 33.8312 43.9523V44.1391C33.8312 44.1681 33.8212 44.192 33.8001 44.213C33.78 44.233 33.7548 44.244 33.7256 44.244H32.0418V46.2436H33.9067V46.2416Z" fill="white"/>
<path d="M36.4552 46.6371C36.4261 46.6371 36.4019 46.6271 36.3808 46.6081C36.3607 46.5892 36.3496 46.5642 36.3496 46.5322V41.707C36.3496 41.6761 36.3597 41.6511 36.3808 41.6311C36.4009 41.6122 36.4261 41.6022 36.4552 41.6022H37.6321C37.8373 41.6022 38.0203 41.6331 38.1803 41.6941C38.3412 41.755 38.476 41.8429 38.5856 41.9567C38.6953 42.0706 38.7788 42.2084 38.8351 42.3702C38.8914 42.5321 38.9206 42.7128 38.9206 42.9116C38.9206 43.1733 38.8683 43.395 38.7627 43.5788C38.657 43.7626 38.5142 43.8994 38.3332 43.9903C38.4589 44.0382 38.5695 44.1022 38.6661 44.1811C38.7627 44.26 38.8431 44.3529 38.9085 44.4577C38.9739 44.5636 39.0232 44.6815 39.0574 44.8123C39.0916 44.9431 39.1077 45.081 39.1077 45.2278C39.1077 45.6902 38.985 46.0408 38.7405 46.2795C38.4951 46.5183 38.14 46.6371 37.6743 46.6371H36.4542H36.4552ZM37.7186 43.8325C37.8373 43.8325 37.9419 43.8105 38.0334 43.7656C38.125 43.7216 38.2014 43.6597 38.2638 43.5808C38.3251 43.5019 38.3714 43.406 38.4036 43.2951C38.4348 43.1833 38.4508 43.0604 38.4508 42.9266C38.4508 42.6369 38.3764 42.4092 38.2286 42.2454C38.0807 42.0816 37.8695 41.9987 37.5969 41.9987H36.8143V43.8325H37.7196H37.7186ZM38.6389 45.2348C38.6389 45.045 38.6138 44.8862 38.5645 44.7584C38.5152 44.6305 38.4428 44.5266 38.3493 44.4477C38.2557 44.3688 38.139 44.3119 38.0012 44.2789C37.8634 44.245 37.7065 44.229 37.5305 44.229H36.8133V46.2426H37.6391C37.9751 46.2426 38.2255 46.1547 38.3905 45.9799C38.5555 45.8051 38.6389 45.5564 38.6389 45.2358V45.2348Z" fill="white"/>
<path d="M41.3538 46.723C41.1224 46.723 40.9142 46.689 40.7312 46.6221C40.5481 46.5552 40.3922 46.4483 40.2644 46.3025C40.1367 46.1567 40.0391 45.9679 39.9707 45.7382C39.9023 45.5084 39.8691 45.2298 39.8691 44.9042V41.708C39.8691 41.6771 39.8792 41.6521 39.8983 41.6321C39.9174 41.6131 39.9426 41.6031 39.9748 41.6031H40.2282C40.2574 41.6031 40.2815 41.6131 40.3027 41.6321C40.3228 41.6511 40.3338 41.6761 40.3338 41.708V44.9042C40.3338 45.1609 40.356 45.3786 40.3992 45.5564C40.4425 45.7352 40.5079 45.881 40.5944 45.9949C40.6809 46.1087 40.7885 46.1916 40.9152 46.2426C41.042 46.2945 41.1888 46.3195 41.3548 46.3195C41.5208 46.3195 41.6676 46.2935 41.7944 46.2426C41.9211 46.1906 42.0277 46.1087 42.1152 45.9949C42.2017 45.881 42.2671 45.7352 42.3104 45.5564C42.3536 45.3776 42.3757 45.1609 42.3757 44.9042V41.708C42.3757 41.6771 42.3858 41.6521 42.4069 41.6321C42.427 41.6131 42.4522 41.6031 42.4814 41.6031H42.7348C42.766 41.6031 42.7912 41.6131 42.8113 41.6321C42.8304 41.6511 42.8404 41.6761 42.8404 41.708V44.9042C42.8404 45.2298 42.8062 45.5084 42.7389 45.7382C42.6715 45.9679 42.5739 46.1567 42.4451 46.3025C42.3174 46.4483 42.1615 46.5552 41.9784 46.6221C41.7954 46.689 41.5871 46.723 41.3558 46.723H41.3538Z" fill="white"/>
<path d="M44.9779 46.6371C44.9488 46.6371 44.9236 46.6271 44.9035 46.6081C44.8824 46.5891 44.8723 46.5642 44.8723 46.5322V44.6375L43.5255 41.757C43.5034 41.709 43.5003 41.6711 43.5144 41.6441C43.5285 41.6161 43.5627 41.6031 43.616 41.6031H43.8293C43.8997 41.6031 43.949 41.6331 43.9781 41.693L45.1047 44.1561L46.2312 41.693C46.2604 41.6331 46.3097 41.6031 46.3801 41.6031H46.5934C46.6467 41.6031 46.6809 41.6171 46.6949 41.6441C46.709 41.6721 46.706 41.709 46.6839 41.757L45.337 44.6375V46.5322C45.337 46.5632 45.327 46.5881 45.3069 46.6081C45.2857 46.6271 45.2616 46.6371 45.2324 46.6371H44.979H44.9779Z" fill="white"/>
<path d="M49.7016 46.2416C49.7308 46.2416 49.7549 46.2515 49.776 46.2705C49.7972 46.2895 49.8072 46.3135 49.8072 46.3424V46.5332C49.8072 46.5642 49.7972 46.5891 49.776 46.6091C49.7559 46.6281 49.7308 46.6381 49.7016 46.6381H47.4787C47.4495 46.6381 47.4254 46.6281 47.4042 46.6091C47.3841 46.5901 47.373 46.5652 47.373 46.5332V41.708C47.373 41.6771 47.3831 41.6521 47.4042 41.6321C47.4243 41.6131 47.4495 41.6031 47.4787 41.6031H49.6513C49.6825 41.6031 49.7076 41.6131 49.7278 41.6321C49.7469 41.6511 49.7569 41.6761 49.7569 41.708V41.8988C49.7569 41.9278 49.7469 41.9517 49.7278 41.9707C49.7087 41.9897 49.6835 41.9997 49.6513 41.9997H47.8367V43.8474H49.5206C49.5497 43.8474 49.5739 43.8574 49.595 43.8784C49.6161 43.8994 49.6262 43.9234 49.6262 43.9523V44.1391C49.6262 44.1681 49.6161 44.192 49.595 44.213C49.5749 44.233 49.5497 44.244 49.5206 44.244H47.8367V46.2436H49.7016V46.2416Z" fill="white"/>
<path d="M51.8701 44.4797H50.994V46.5332C50.994 46.5642 50.9839 46.5891 50.9648 46.6091C50.9457 46.6291 50.9206 46.6381 50.8884 46.6381H50.6349C50.6057 46.6381 50.5816 46.6281 50.5605 46.6091C50.5404 46.5901 50.5293 46.5652 50.5293 46.5332V41.708C50.5293 41.6771 50.5394 41.6521 50.5605 41.6321C50.5806 41.6131 50.6057 41.6031 50.6349 41.6031H51.7393C51.9586 41.6031 52.1568 41.6351 52.3328 41.7C52.5088 41.765 52.6587 41.8588 52.7814 41.9827C52.9041 42.1065 52.9997 42.2574 53.0661 42.4361C53.1325 42.6149 53.1657 42.8167 53.1657 43.0424C53.1657 43.39 53.0912 43.6786 52.9413 43.9094C52.7915 44.1391 52.5812 44.3009 52.3117 44.3948L53.3145 46.4913C53.3367 46.5342 53.3387 46.5702 53.3216 46.5971C53.3045 46.6251 53.2713 46.6381 53.22 46.6381H53.0027C52.9253 46.6381 52.8719 46.6041 52.8438 46.5372L51.8701 44.4807V44.4797ZM52.6959 43.0414C52.6959 42.7058 52.6144 42.4481 52.4515 42.2683C52.2885 42.0886 52.0461 41.9987 51.7253 41.9987H50.994V44.0842H51.7253C52.0461 44.0842 52.2885 43.9943 52.4515 43.8145C52.6144 43.6347 52.6959 43.377 52.6959 43.0414Z" fill="white"/>
<path d="M53.8167 46.5472C53.7583 46.5232 53.7322 46.4843 53.7372 46.4283L53.7513 46.2016C53.7533 46.1607 53.7694 46.1337 53.7986 46.1187C53.8277 46.1047 53.8629 46.1077 53.9032 46.1297C54.0309 46.1946 54.1637 46.2426 54.3015 46.2735C54.4393 46.3045 54.5811 46.3205 54.729 46.3205C54.8768 46.3205 55.0197 46.2985 55.1384 46.2536C55.2571 46.2096 55.3556 46.1457 55.4351 46.0628C55.5146 45.9799 55.5749 45.88 55.6162 45.7621C55.6574 45.6443 55.6775 45.5114 55.6775 45.3626C55.6775 45.087 55.6071 44.8592 55.4653 44.6794C55.3245 44.4997 55.1002 44.3458 54.7934 44.219C54.6002 44.1401 54.4353 44.0512 54.2995 43.9533C54.1627 43.8554 54.051 43.7456 53.9625 43.6257C53.874 43.5059 53.8096 43.375 53.7684 43.2342C53.7272 43.0924 53.707 42.9365 53.707 42.7667C53.707 42.577 53.7382 42.4052 53.8016 42.2504C53.8639 42.0956 53.9535 41.9637 54.0691 41.8549C54.1848 41.746 54.3266 41.6621 54.4926 41.6032C54.6596 41.5442 54.8467 41.5153 55.0539 41.5153C55.1987 41.5153 55.3365 41.5272 55.4663 41.5512C55.597 41.5752 55.7198 41.6101 55.8354 41.6551C55.8938 41.6791 55.9199 41.719 55.9149 41.7739L55.9038 41.9827C55.9018 42.0236 55.8857 42.0506 55.8566 42.0636C55.8274 42.0766 55.7922 42.0736 55.7519 42.0546C55.6504 42.0067 55.5437 41.9717 55.4311 41.9507C55.3184 41.9298 55.2048 41.9188 55.0891 41.9188C54.7974 41.9188 54.5721 41.9937 54.4142 42.1435C54.2562 42.2933 54.1768 42.4991 54.1768 42.7598C54.1768 42.8916 54.1939 43.0105 54.2271 43.1153C54.2603 43.2212 54.3136 43.3171 54.386 43.403C54.4584 43.4889 54.5489 43.5688 54.6596 43.6417C54.7692 43.7146 54.9 43.7845 55.0529 43.8524C55.244 43.9363 55.4079 44.0282 55.5457 44.1271C55.6835 44.227 55.7972 44.3379 55.8857 44.4597C55.9752 44.5816 56.0406 44.7164 56.0829 44.8622C56.1251 45.0081 56.1462 45.1699 56.1462 45.3476C56.1462 45.5634 56.1151 45.7561 56.0517 45.9269C55.9883 46.0977 55.8968 46.2406 55.7751 46.3584C55.6534 46.4763 55.5035 46.5662 55.3265 46.6281C55.1494 46.69 54.9473 46.722 54.7199 46.722C54.565 46.722 54.4101 46.707 54.2532 46.677C54.0963 46.6471 53.9504 46.6031 53.8147 46.5462L53.8167 46.5472Z" fill="white"/>
<path d="M58.9741 42.2284V46.5322C58.9741 46.5632 58.964 46.5881 58.9429 46.6081C58.9228 46.6271 58.8976 46.6371 58.8684 46.6371H58.6291C58.5979 46.6371 58.5727 46.6271 58.5526 46.6081C58.5335 46.5891 58.5234 46.5642 58.5234 46.5322V41.707C58.5234 41.676 58.5335 41.6511 58.5526 41.6311C58.5717 41.6111 58.5969 41.6021 58.6291 41.6021H59.0777C59.1189 41.6021 59.1511 41.6111 59.1732 41.6291C59.1964 41.6471 59.2135 41.673 59.2255 41.706L60.9928 46.0098V41.706C60.9928 41.675 61.0029 41.6501 61.024 41.6301C61.0441 41.6111 61.0693 41.6011 61.0984 41.6011H61.3378C61.369 41.6011 61.3942 41.6111 61.4143 41.6301C61.4334 41.6491 61.4435 41.674 61.4435 41.706V46.5312C61.4435 46.5622 61.4334 46.5871 61.4143 46.6071C61.3952 46.6261 61.37 46.6361 61.3378 46.6361H60.8892C60.848 46.6361 60.8158 46.6271 60.7937 46.6091C60.7705 46.5911 60.7534 46.5652 60.7414 46.5322L58.9741 42.2284Z" fill="white"/>
<path d="M64.7856 46.2416C64.8148 46.2416 64.8389 46.2515 64.86 46.2705C64.8811 46.2895 64.8912 46.3135 64.8912 46.3424V46.5332C64.8912 46.5642 64.8811 46.5891 64.86 46.6091C64.8399 46.6281 64.8148 46.6381 64.7856 46.6381H62.5626C62.5335 46.6381 62.5093 46.6281 62.4882 46.6091C62.4681 46.5901 62.457 46.5652 62.457 46.5332V41.708C62.457 41.6771 62.4671 41.6521 62.4882 41.6321C62.5083 41.6131 62.5335 41.6031 62.5626 41.6031H64.7353C64.7665 41.6031 64.7916 41.6131 64.8117 41.6321C64.8309 41.6511 64.8409 41.6761 64.8409 41.708V41.8988C64.8409 41.9278 64.8309 41.9517 64.8117 41.9707C64.7926 41.9897 64.7675 41.9997 64.7353 41.9997H62.9207V43.8474H64.6045C64.6337 43.8474 64.6578 43.8574 64.679 43.8784C64.7001 43.8994 64.7102 43.9234 64.7102 43.9523V44.1391C64.7102 44.1681 64.7001 44.192 64.679 44.213C64.6589 44.233 64.6337 44.244 64.6045 44.244H62.9207V46.2436H64.7856V46.2416Z" fill="white"/>
<path d="M66.3385 41.9987H65.2482C65.219 41.9987 65.1939 41.9897 65.1738 41.9697C65.1536 41.9508 65.1426 41.9268 65.1426 41.8978V41.707C65.1426 41.6761 65.1526 41.6511 65.1738 41.6311C65.1939 41.6122 65.219 41.6022 65.2482 41.6022H67.8916C67.9208 41.6022 67.9449 41.6122 67.966 41.6311C67.9861 41.6501 67.9972 41.6751 67.9972 41.707V41.8978C67.9972 41.9268 67.9871 41.9508 67.966 41.9697C67.9449 41.9887 67.9208 41.9987 67.8916 41.9987H66.8012V46.5332C66.8012 46.5642 66.7912 46.5892 66.7701 46.6091C66.7499 46.6281 66.7248 46.6381 66.6956 46.6381H66.4422C66.413 46.6381 66.3888 46.6281 66.3677 46.6091C66.3476 46.5902 66.3365 46.5652 66.3365 46.5332V41.9987H66.3385Z" fill="white"/>
<path d="M71.0543 41.6031C71.0884 41.6031 71.1156 41.6131 71.1357 41.6321C71.1558 41.6511 71.1689 41.6751 71.1739 41.704L71.9666 46.1557L72.894 41.704C72.899 41.6751 72.9111 41.6511 72.9322 41.6321C72.9523 41.6131 72.9795 41.6031 73.0137 41.6031H73.2631C73.3013 41.6031 73.3305 41.6151 73.3496 41.6391C73.3687 41.6631 73.3748 41.693 73.3677 41.729L72.3216 46.5332C72.3045 46.6031 72.2633 46.6371 72.1989 46.6371H71.7242C71.6568 46.6371 71.6155 46.6021 71.6014 46.5332L70.8591 42.3512L70.1168 46.5332C70.1027 46.6031 70.0615 46.6371 69.9941 46.6371H69.5193C69.4539 46.6371 69.4127 46.6021 69.3966 46.5332L68.3505 41.729C68.3435 41.693 68.3495 41.6631 68.3686 41.6391C68.3877 41.6151 68.4169 41.6031 68.4551 41.6031H68.7046C68.7388 41.6031 68.7659 41.6131 68.786 41.6321C68.8062 41.6511 68.8192 41.6751 68.8243 41.704L69.7517 46.1557L70.5443 41.704C70.5493 41.6751 70.5614 41.6511 70.5825 41.6321C70.6026 41.6131 70.6298 41.6031 70.664 41.6031H71.0553H71.0543Z" fill="white"/>
<path d="M75.3854 46.723C75.1098 46.723 74.8684 46.665 74.6612 46.5482C74.454 46.4323 74.28 46.2625 74.1401 46.0408C74.0003 45.8191 73.8947 45.5474 73.8253 45.2248C73.7549 44.9022 73.7207 44.5336 73.7207 44.1191C73.7207 43.7046 73.7559 43.339 73.8273 43.0174C73.8987 42.6948 74.0044 42.4221 74.1442 42.1994C74.284 41.9767 74.458 41.8069 74.6652 41.691C74.8724 41.5752 75.1128 41.5162 75.3854 41.5162C75.658 41.5162 75.8984 41.5742 76.1056 41.691C76.3128 41.8069 76.4868 41.9767 76.6266 42.1994C76.7664 42.4221 76.8721 42.6948 76.9435 43.0174C77.0149 43.34 77.0501 43.7076 77.0501 44.1191C77.0501 44.5306 77.0149 44.9022 76.9455 45.2248C76.8751 45.5474 76.7705 45.8191 76.6307 46.0408C76.4908 46.2625 76.3168 46.4313 76.1096 46.5482C75.9024 46.664 75.661 46.723 75.3854 46.723ZM75.3854 46.3204C75.7767 46.3204 76.0734 46.1407 76.2766 45.7811C76.4798 45.4215 76.5804 44.8682 76.5804 44.1201C76.5804 43.372 76.4788 42.8247 76.2766 42.4621C76.0734 42.1005 75.7767 41.9187 75.3854 41.9187C74.9941 41.9187 74.6974 42.0995 74.4942 42.4621C74.291 42.8237 74.1904 43.377 74.1904 44.1201C74.1904 44.8632 74.292 45.4215 74.4942 45.7811C74.6974 46.1407 74.9941 46.3204 75.3854 46.3204Z" fill="white"/>
<path d="M79.1514 44.4797H78.2753V46.5332C78.2753 46.5642 78.2652 46.5891 78.2461 46.6091C78.227 46.6291 78.2018 46.6381 78.1696 46.6381H77.9162C77.887 46.6381 77.8629 46.6281 77.8417 46.6091C77.8216 46.5901 77.8105 46.5652 77.8105 46.5332V41.708C77.8105 41.6771 77.8206 41.6521 77.8417 41.6321C77.8618 41.6131 77.887 41.6031 77.9162 41.6031H79.0206C79.2399 41.6031 79.438 41.6351 79.6141 41.7C79.7901 41.765 79.94 41.8588 80.0627 41.9827C80.1854 42.1065 80.2809 42.2574 80.3473 42.4361C80.4137 42.6149 80.4469 42.8167 80.4469 43.0424C80.4469 43.39 80.3725 43.6786 80.2226 43.9094C80.0727 44.1391 79.8625 44.3009 79.5929 44.3948L80.5958 46.4913C80.6179 46.5342 80.6199 46.5702 80.6028 46.5971C80.5857 46.6251 80.5525 46.6381 80.5012 46.6381H80.284C80.2065 46.6381 80.1532 46.6041 80.125 46.5372L79.1514 44.4807V44.4797ZM79.9772 43.0414C79.9772 42.7058 79.8957 42.4481 79.7327 42.2683C79.5698 42.0886 79.3274 41.9987 79.0065 41.9987H78.2753V44.0842H79.0065C79.3274 44.0842 79.5698 43.9943 79.7327 43.8145C79.8957 43.6347 79.9772 43.377 79.9772 43.0414Z" fill="white"/>
<path d="M81.6698 44.0412V46.5332C81.6698 46.5642 81.6597 46.5891 81.6386 46.6091C81.6185 46.6281 81.5933 46.6381 81.5642 46.6381H81.3107C81.2815 46.6381 81.2574 46.6281 81.2363 46.6091C81.2161 46.5901 81.2051 46.5652 81.2051 46.5332V41.708C81.2051 41.6771 81.2151 41.6521 81.2363 41.6321C81.2564 41.6131 81.2815 41.6031 81.3107 41.6031H81.5642C81.5933 41.6031 81.6175 41.6131 81.6386 41.6321C81.6587 41.6511 81.6698 41.6761 81.6698 41.708V43.8904L83.245 41.6831C83.2832 41.6301 83.3365 41.6041 83.4039 41.6041H83.6433C83.6936 41.6041 83.7258 41.6181 83.7388 41.6471C83.7519 41.6761 83.7459 41.709 83.7187 41.748L82.1325 43.9553L83.9541 46.4943C83.9802 46.5322 83.9873 46.5662 83.9742 46.5951C83.9611 46.6241 83.9289 46.6381 83.8787 46.6381H83.6111C83.5437 46.6381 83.4904 46.6121 83.4522 46.5592L81.6708 44.0422L81.6698 44.0412Z" fill="white"/>
<g filter="url(#filter0_d_469_5700)">
<path d="M35.6459 18.7548C36.9254 20.0792 37.5641 21.914 37.5641 24.2582V35.1681H32.1526V25.1701C32.1526 23.9765 31.8629 23.0646 31.2835 22.4344C30.7041 21.8052 29.8451 21.4895 28.7095 21.4895C27.4844 21.4895 26.4685 21.935 25.6597 22.8249C24.851 23.7159 24.4467 24.8555 24.4467 26.2448V35.1681H19.0352V11.135H24.4467V19.3741C25.1458 18.5711 25.9987 17.9358 27.0046 17.4694C28.0104 17.0029 29.1471 16.7692 30.4154 16.7692C32.6233 16.7692 34.3675 17.4314 35.6459 18.7558V18.7548Z" fill="#397B96"/>
<path d="M57.0606 17.9407C58.492 18.7228 59.6185 19.8135 60.4383 21.2138C61.2581 22.6141 61.6685 24.2151 61.6685 26.017C61.6685 27.8188 61.2369 29.4798 60.3729 30.9341C59.5089 32.3893 58.3069 33.5229 56.7649 34.337C55.2229 35.151 53.4798 35.5585 51.5344 35.5585C49.5891 35.5585 47.8449 35.146 46.304 34.321C44.763 33.496 43.56 32.3454 42.6959 30.8691C41.8319 29.3929 41.4004 27.7099 41.4004 25.8212V11.1339H46.8773V18.526C47.6206 17.9617 48.4515 17.5272 49.3698 17.2236C50.2882 16.9199 51.2498 16.7681 52.2556 16.7681C54.0269 16.7681 55.6283 17.1587 57.0606 17.9407ZM54.9292 29.6156C55.7922 28.7367 56.2247 27.5801 56.2247 26.1478C56.2247 24.7155 55.7872 23.5589 54.9131 22.68C54.038 21.8011 52.9125 21.3606 51.5354 21.3606C50.1584 21.3606 49.0369 21.7951 48.1738 22.663C47.3098 23.532 46.8783 24.6716 46.8783 26.0819C46.8783 27.4922 47.3158 28.7087 48.1899 29.5987C49.064 30.4896 50.1906 30.9341 51.5676 30.9341C52.9446 30.9341 54.0652 30.4946 54.9292 29.6156Z" fill="#397B96"/>
<path d="M69.8998 35.1679H64.4883V26.3426C64.4883 24.4329 64.8765 22.7549 65.6531 21.3116C66.4286 19.8684 67.5169 18.7497 68.9161 17.9577C70.3152 17.1656 71.9115 16.7691 73.704 16.7691C75.4964 16.7691 77.1259 17.1656 78.5251 17.9577C79.9242 18.7507 81.0115 19.8684 81.7881 21.3116C82.5636 22.7559 82.9528 24.4329 82.9528 26.3426V35.1679H77.5413V25.5615C77.5413 24.324 77.1852 23.3142 76.4751 22.5332C75.764 21.7511 74.8406 21.3606 73.704 21.3606C72.5673 21.3606 71.6762 21.7511 70.965 22.5332C70.2539 23.3152 69.8988 24.324 69.8988 25.5615V35.1679H69.8998Z" fill="#397B96"/>
<path d="M35.6459 18.7548C36.9254 20.0792 37.5641 21.914 37.5641 24.2582V35.1681H32.1526V25.1701C32.1526 23.9765 31.8629 23.0646 31.2835 22.4344C30.7041 21.8052 29.8451 21.4895 28.7095 21.4895C27.4844 21.4895 26.4685 21.935 25.6597 22.8249C24.851 23.7159 24.4467 24.8555 24.4467 26.2448V35.1681H19.0352V11.135H24.4467V19.3741C25.1458 18.5711 25.9987 17.9358 27.0046 17.4694C28.0104 17.0029 29.1471 16.7692 30.4154 16.7692C32.6233 16.7692 34.3675 17.4314 35.6459 18.7558V18.7548Z" fill="url(#paint1_linear_469_5700)"/>
<path d="M57.0606 17.9407C58.492 18.7228 59.6185 19.8135 60.4383 21.2138C61.2581 22.6141 61.6685 24.2151 61.6685 26.017C61.6685 27.8188 61.2369 29.4798 60.3729 30.9341C59.5089 32.3893 58.3069 33.5229 56.7649 34.337C55.2229 35.151 53.4798 35.5585 51.5344 35.5585C49.5891 35.5585 47.8449 35.146 46.304 34.321C44.763 33.496 43.56 32.3454 42.6959 30.8691C41.8319 29.3929 41.4004 27.7099 41.4004 25.8212V11.1339H46.8773V18.526C47.6206 17.9617 48.4515 17.5272 49.3698 17.2236C50.2882 16.9199 51.2498 16.7681 52.2556 16.7681C54.0269 16.7681 55.6283 17.1587 57.0606 17.9407ZM54.9292 29.6156C55.7922 28.7367 56.2247 27.5801 56.2247 26.1478C56.2247 24.7155 55.7872 23.5589 54.9131 22.68C54.038 21.8011 52.9125 21.3606 51.5354 21.3606C50.1584 21.3606 49.0369 21.7951 48.1738 22.663C47.3098 23.532 46.8783 24.6716 46.8783 26.0819C46.8783 27.4922 47.3158 28.7087 48.1899 29.5987C49.064 30.4896 50.1906 30.9341 51.5676 30.9341C52.9446 30.9341 54.0652 30.4946 54.9292 29.6156Z" fill="url(#paint2_linear_469_5700)"/>
<path d="M69.8998 35.1679H64.4883V26.3426C64.4883 24.4329 64.8765 22.7549 65.6531 21.3116C66.4286 19.8684 67.5169 18.7497 68.9161 17.9577C70.3152 17.1656 71.9115 16.7691 73.704 16.7691C75.4964 16.7691 77.1259 17.1656 78.5251 17.9577C79.9242 18.7507 81.0115 19.8684 81.7881 21.3116C82.5636 22.7559 82.9528 24.4329 82.9528 26.3426V35.1679H77.5413V25.5615C77.5413 24.324 77.1852 23.3142 76.4751 22.5332C75.764 21.7511 74.8406 21.3606 73.704 21.3606C72.5673 21.3606 71.6762 21.7511 70.965 22.5332C70.2539 23.3152 69.8988 24.324 69.8988 25.5615V35.1679H69.8998Z" fill="url(#paint3_linear_469_5700)"/>
</g>
</g>
<defs>
<filter id="filter0_d_469_5700" x="15.0352" y="11.1339" width="71.918" height="32.4246" filterUnits="userSpaceOnUse" color-interpolation-filters="sRGB">
<feFlood flood-opacity="0" result="BackgroundImageFix"/>
<feColorMatrix in="SourceAlpha" type="matrix" values="0 0 0 0 0 0 0 0 0 0 0 0 0 0 0 0 0 0 127 0" result="hardAlpha"/>
<feOffset dy="4"/>
<feGaussianBlur stdDeviation="2"/>
<feComposite in2="hardAlpha" operator="out"/>
<feColorMatrix type="matrix" values="0 0 0 0 0 0 0 0 0 0 0 0 0 0 0 0 0 0 0.25 0"/>
<feBlend mode="normal" in2="BackgroundImageFix" result="effect1_dropShadow_469_5700"/>
<feBlend mode="normal" in="SourceGraphic" in2="effect1_dropShadow_469_5700" result="shape"/>
</filter>
<linearGradient id="paint0_linear_469_5700" x1="25.9723" y1="42.8243" x2="62.4568" y2="-19.4863" gradientUnits="userSpaceOnUse">
<stop stop-color="#5D61AB"/>
<stop offset="1" stop-color="#7F7FB2"/>
</linearGradient>
<linearGradient id="paint1_linear_469_5700" x1="19.0342" y1="23.3473" x2="82.9535" y2="23.3473" gradientUnits="userSpaceOnUse">
<stop stop-color="#F3B41B"/>
<stop offset="1" stop-color="#F8DB54"/>
</linearGradient>
<linearGradient id="paint2_linear_469_5700" x1="19.0341" y1="23.3472" x2="82.9534" y2="23.3472" gradientUnits="userSpaceOnUse">
<stop stop-color="#F3B41B"/>
<stop offset="1" stop-color="#F8DB54"/>
</linearGradient>
<linearGradient id="paint3_linear_469_5700" x1="19.0335" y1="23.3472" x2="82.9528" y2="23.3472" gradientUnits="userSpaceOnUse">
<stop stop-color="#F3B41B"/>
<stop offset="1" stop-color="#F8DB54"/>
</linearGradient>
<clipPath id="clip0_469_5700">
<rect width="103" height="58" fill="white"/>
</clipPath>
</defs>
</svg>
