<svg width="18" height="18" viewBox="0 0 18 18" fill="none" xmlns="http://www.w3.org/2000/svg">
<path d="M3.87402 8.32232H1.38768C1.19678 8.32206 1.01357 8.39755 0.878271 8.53222C0.742971 8.6669 0.666634 8.84976 0.666016 9.04066V14.5797C0.666456 14.7709 0.74263 14.9542 0.877873 15.0895C1.01312 15.2247 1.19642 15.3009 1.38768 15.3013H3.87435C4.06555 15.3008 4.24877 15.2246 4.38394 15.0893C4.51911 14.9541 4.59524 14.7709 4.59568 14.5797V9.04066C4.59506 8.84976 4.51873 8.6669 4.38343 8.53222C4.24813 8.39755 4.06492 8.32206 3.87402 8.32232ZM2.50668 14.1967C2.42068 14.1971 2.33543 14.1805 2.25584 14.1479C2.17625 14.1153 2.10389 14.0673 2.0429 14.0067C1.98192 13.9461 1.93351 13.874 1.90047 13.7946C1.86742 13.7151 1.85039 13.63 1.85035 13.544C1.85035 13.1813 2.14402 12.888 2.50668 12.888C2.86568 12.888 3.15935 13.1813 3.15935 13.544C3.15935 13.9067 2.86602 14.1967 2.50668 14.1967ZM17.3107 11.7617C17.2864 11.6521 17.2391 11.5489 17.1718 11.459C17.1046 11.3691 17.019 11.2946 16.9207 11.2403C16.8233 11.1839 16.7149 11.1488 16.6029 11.1375C16.4909 11.1262 16.3778 11.1389 16.271 11.1747L11.05 12.884C10.8803 12.9437 10.7016 12.9742 10.5217 12.974H7.88668C7.85258 12.9743 7.81876 12.9678 7.7872 12.9549C7.75564 12.942 7.72696 12.9229 7.70285 12.8988C7.67874 12.8747 7.65967 12.846 7.64676 12.8145C7.63386 12.7829 7.62737 12.7491 7.62768 12.715C7.62768 12.5733 7.74168 12.456 7.88668 12.456H10.5217C10.6423 12.456 10.7563 12.4387 10.867 12.4007C10.8703 12.4007 10.8737 12.3973 10.877 12.3973L10.8807 12.394C11.0888 12.3198 11.269 12.1831 11.3963 12.0025C11.5237 11.8219 11.592 11.6063 11.592 11.3853C11.5925 11.101 11.48 10.8281 11.2792 10.6267C11.0785 10.4253 10.806 10.3119 10.5217 10.3113H8.80868C8.60682 10.3114 8.40722 10.269 8.22282 10.1868C8.03842 10.1047 7.87336 9.98472 7.73835 9.83466L7.37568 9.43432C7.28796 9.33849 7.18125 9.26198 7.06234 9.20964C6.94343 9.1573 6.81493 9.13029 6.68502 9.13032H5.11368V14.58C5.11368 14.67 5.10368 14.756 5.08602 14.839L7.50702 16.2167C8.00436 16.4986 8.56664 16.646 9.13834 16.6442C9.71005 16.6425 10.2714 16.4917 10.767 16.2067L16.927 12.6427C17.0779 12.5574 17.1969 12.4253 17.266 12.2665C17.3352 12.1076 17.3507 11.9305 17.3103 11.762L17.3107 11.7617ZM8.77768 5.40432C8.108 5.81673 7.58956 6.43455 7.29968 7.16566H4.87902C4.40568 7.16566 4.07435 6.69232 4.24002 6.25032C4.4325 5.73622 4.77735 5.29312 5.22845 4.98028C5.67954 4.66744 6.21539 4.49976 6.76435 4.49966C7.14501 4.49833 7.52157 4.57836 7.86879 4.73438C8.21602 4.8904 8.5259 5.11882 8.77768 5.40432ZM8.04502 2.63666C8.04502 3.34399 7.47235 3.91666 6.76468 3.91666C6.05702 3.91666 5.48468 3.34399 5.48468 2.63666C5.48468 1.92899 6.05702 1.35632 6.76468 1.35632C7.47235 1.35632 8.04468 1.92899 8.04468 2.63632L8.04502 2.63666ZM16.5613 7.16566H14.1027C13.8161 6.44345 13.3068 5.83138 12.6487 5.41832C12.9019 5.12904 13.2142 4.89737 13.5644 4.7389C13.9147 4.58044 14.2949 4.49886 14.6793 4.49966C15.8327 4.49966 16.8167 5.22832 17.2 6.25032C17.2375 6.35318 17.2498 6.46356 17.2356 6.57213C17.2214 6.6807 17.1813 6.78426 17.1187 6.87405C17.056 6.96385 16.9727 7.03723 16.8757 7.08798C16.7787 7.13874 16.6708 7.16538 16.5613 7.16566ZM15.9577 2.63666C15.9577 3.34399 15.3847 3.91666 14.6773 3.91666C13.97 3.91666 13.397 3.34399 13.397 2.63666C13.397 2.46854 13.43 2.30205 13.4944 2.14672C13.5587 1.99138 13.6529 1.85024 13.7718 1.73134C13.8907 1.61245 14.0318 1.51814 14.1871 1.45379C14.3424 1.38944 14.5089 1.35632 14.677 1.35632C14.8452 1.35624 15.0117 1.38928 15.1671 1.45357C15.3224 1.51785 15.4636 1.61212 15.5825 1.73099C15.7015 1.84986 15.7958 1.99099 15.8602 2.14633C15.9246 2.30167 15.9577 2.46851 15.9577 2.63666ZM12.901 8.48199C13.4523 8.48199 13.8377 7.92999 13.6447 7.41332C13.1997 6.22132 12.051 5.37132 10.704 5.37132C9.35368 5.37132 8.20402 6.22132 7.75868 7.41332C7.56602 7.92999 7.95102 8.48199 8.50235 8.48199H12.901ZM12.1953 3.14366C12.1953 3.96932 11.527 4.63732 10.702 4.63732C9.87702 4.63732 9.20802 3.96932 9.20802 3.14399C9.20802 2.31832 9.87635 1.65032 10.7017 1.65032C11.527 1.65032 12.1953 2.31832 12.1953 3.14366Z" fill="#6E6D6A"/>
</svg>
