<svg width="395" height="395" viewBox="0 0 395 395" fill="none" xmlns="http://www.w3.org/2000/svg">
<g clip-path="url(#clip0_22_941)">
<path d="M395 0H0V395H395V0Z" fill="white"/>
<path d="M73.1869 239.974C73.1869 239.854 73.2255 239.758 73.2988 239.681C73.372 239.608 73.4685 239.569 73.5919 239.569H74.5794C74.6913 239.569 74.7839 239.608 74.8572 239.681C74.9304 239.754 74.969 239.851 74.969 239.974V247.874H82.5218V239.974C82.5218 239.854 82.5604 239.758 82.6337 239.681C82.707 239.608 82.8034 239.569 82.9269 239.569H83.899C84.0108 239.569 84.1034 239.608 84.1844 239.681C84.2616 239.754 84.304 239.851 84.304 239.974V258.609C84.304 258.729 84.2654 258.825 84.1844 258.902C84.1073 258.976 84.0108 259.014 83.899 259.014H82.9269C82.8073 259.014 82.7109 258.976 82.6337 258.902C82.5604 258.829 82.5218 258.733 82.5218 258.609V249.402H74.969V258.609C74.969 258.729 74.9304 258.825 74.8572 258.902C74.7839 258.976 74.6913 259.014 74.5794 259.014H73.5919C73.4723 259.014 73.3759 258.976 73.2988 258.902C73.2255 258.829 73.1869 258.733 73.1869 258.609V239.974Z" fill="#F3B41B"/>
<path d="M93.6004 259.346C92.5435 259.346 91.6177 259.122 90.8231 258.671C90.0284 258.224 89.3611 257.568 88.8249 256.711C88.2887 255.855 87.8837 254.806 87.6175 253.56C87.3475 252.314 87.2164 250.891 87.2164 249.29C87.2164 247.689 87.3514 246.277 87.6253 245.035C87.8991 243.789 88.3042 242.736 88.8403 241.876C89.3765 241.016 90.0439 240.36 90.8385 239.912C91.6331 239.465 92.555 239.237 93.6004 239.237C94.6458 239.237 95.5677 239.461 96.3623 239.912C97.1569 240.36 97.8243 241.016 98.3605 241.876C98.8966 242.736 99.3017 243.789 99.5756 245.035C99.8494 246.281 99.9844 247.7 99.9844 249.29C99.9844 250.879 99.8494 252.314 99.5833 253.56C99.3132 254.806 98.9121 255.855 98.3759 256.711C97.8397 257.568 97.1724 258.22 96.3777 258.671C95.5831 259.122 94.6573 259.346 93.6004 259.346ZM93.6004 257.791C95.1009 257.791 96.2389 257.097 97.0181 255.709C97.7973 254.32 98.183 252.183 98.183 249.294C98.183 246.404 97.7934 244.291 97.0181 242.89C96.2427 241.49 95.1009 240.792 93.6004 240.792C92.0999 240.792 90.9619 241.49 90.1827 242.89C89.4035 244.291 89.0178 246.424 89.0178 249.294C89.0178 252.164 89.4074 254.32 90.1827 255.709C90.9619 257.097 92.0999 257.791 93.6004 257.791Z" fill="#F3B41B"/>
<path d="M109.4 252.403C109.069 252.403 108.841 252.248 108.721 251.944L104.625 241.486V258.609C104.625 258.729 104.586 258.825 104.505 258.902C104.428 258.976 104.332 259.014 104.22 259.014H103.302C103.19 259.014 103.097 258.976 103.016 258.902C102.939 258.829 102.897 258.733 102.897 258.609V239.974C102.897 239.854 102.935 239.758 103.016 239.681C103.093 239.608 103.19 239.569 103.302 239.569H105.192C105.35 239.569 105.473 239.604 105.558 239.673C105.647 239.743 105.713 239.843 105.759 239.97L109.925 250.401L114.091 239.97C114.137 239.843 114.203 239.743 114.292 239.673C114.38 239.604 114.504 239.569 114.658 239.569H116.548C116.66 239.569 116.753 239.608 116.834 239.681C116.911 239.754 116.953 239.851 116.953 239.974V258.609C116.953 258.729 116.915 258.825 116.834 258.902C116.756 258.976 116.66 259.014 116.548 259.014H115.63C115.518 259.014 115.426 258.976 115.345 258.902C115.267 258.829 115.225 258.733 115.225 258.609V241.486L111.128 251.944C110.997 252.248 110.774 252.403 110.45 252.403H109.393H109.4Z" fill="#F3B41B"/>
<path d="M129.775 257.487C129.887 257.487 129.98 257.525 130.061 257.599C130.138 257.672 130.18 257.764 130.18 257.876V258.613C130.18 258.733 130.142 258.829 130.061 258.906C129.984 258.98 129.887 259.018 129.775 259.018H121.25C121.138 259.018 121.046 258.98 120.965 258.906C120.888 258.833 120.845 258.737 120.845 258.613V239.978C120.845 239.858 120.884 239.762 120.965 239.685C121.042 239.611 121.138 239.573 121.25 239.573H129.582C129.702 239.573 129.798 239.611 129.876 239.685C129.949 239.758 129.987 239.854 129.987 239.978V240.715C129.987 240.827 129.949 240.919 129.876 240.992C129.802 241.066 129.706 241.104 129.582 241.104H122.624V248.24H129.081C129.193 248.24 129.285 248.279 129.366 248.36C129.444 248.437 129.486 248.534 129.486 248.646V249.367C129.486 249.479 129.447 249.571 129.366 249.652C129.289 249.729 129.193 249.772 129.081 249.772H122.624V257.494H129.775V257.487Z" fill="#F3B41B"/>
<path d="M139.55 259.014C139.438 259.014 139.346 258.976 139.265 258.902C139.187 258.829 139.145 258.733 139.145 258.609V239.974C139.145 239.854 139.184 239.758 139.265 239.681C139.342 239.608 139.438 239.569 139.55 239.569H144.063C144.85 239.569 145.552 239.689 146.165 239.924C146.783 240.159 147.3 240.499 147.72 240.938C148.14 241.378 148.461 241.91 148.677 242.535C148.893 243.16 149.005 243.858 149.005 244.626C149.005 245.637 148.804 246.493 148.399 247.203C147.994 247.913 147.446 248.441 146.752 248.792C147.234 248.977 147.658 249.224 148.029 249.529C148.399 249.834 148.708 250.192 148.958 250.597C149.209 251.006 149.398 251.461 149.529 251.967C149.66 252.472 149.722 253.004 149.722 253.571C149.722 255.357 149.251 256.711 148.314 257.633C147.373 258.555 146.011 259.014 144.225 259.014H139.546H139.55ZM144.395 248.183C144.85 248.183 145.251 248.098 145.602 247.924C145.953 247.754 146.246 247.515 146.486 247.211C146.721 246.906 146.898 246.535 147.022 246.107C147.141 245.675 147.203 245.201 147.203 244.684C147.203 243.565 146.918 242.686 146.351 242.053C145.784 241.421 144.974 241.1 143.928 241.1H140.927V248.183H144.399H144.395ZM147.924 253.598C147.924 252.866 147.828 252.252 147.639 251.758C147.45 251.265 147.172 250.863 146.814 250.559C146.455 250.254 146.007 250.034 145.479 249.907C144.95 249.776 144.349 249.714 143.674 249.714H140.923V257.491H144.09C145.379 257.491 146.339 257.151 146.972 256.476C147.604 255.801 147.924 254.841 147.924 253.602V253.598Z" fill="#F3B41B"/>
<path d="M158.339 259.346C157.452 259.346 156.654 259.215 155.952 258.956C155.25 258.698 154.652 258.285 154.162 257.722C153.672 257.159 153.298 256.43 153.036 255.543C152.773 254.655 152.646 253.579 152.646 252.322V239.978C152.646 239.858 152.685 239.762 152.758 239.685C152.831 239.611 152.928 239.573 153.051 239.573H154.023C154.135 239.573 154.227 239.611 154.308 239.685C154.386 239.758 154.428 239.854 154.428 239.978V252.322C154.428 253.313 154.513 254.154 154.679 254.841C154.845 255.531 155.095 256.094 155.427 256.534C155.759 256.974 156.172 257.294 156.658 257.491C157.144 257.691 157.707 257.788 158.343 257.788C158.98 257.788 159.543 257.687 160.029 257.491C160.515 257.29 160.924 256.974 161.26 256.534C161.591 256.094 161.842 255.531 162.008 254.841C162.174 254.15 162.259 253.313 162.259 252.322V239.978C162.259 239.858 162.297 239.762 162.378 239.685C162.455 239.611 162.552 239.573 162.664 239.573H163.636C163.755 239.573 163.852 239.611 163.929 239.685C164.002 239.758 164.041 239.854 164.041 239.978V252.322C164.041 253.579 163.91 254.655 163.651 255.543C163.393 256.43 163.019 257.159 162.525 257.722C162.035 258.285 161.437 258.698 160.735 258.956C160.033 259.215 159.234 259.346 158.347 259.346H158.339Z" fill="#F3B41B"/>
<path d="M172.238 259.014C172.126 259.014 172.029 258.976 171.952 258.902C171.871 258.829 171.833 258.733 171.833 258.609V251.292L166.668 240.167C166.583 239.982 166.571 239.835 166.625 239.731C166.679 239.623 166.81 239.573 167.015 239.573H167.833C168.103 239.573 168.292 239.689 168.404 239.92L172.724 249.432L177.044 239.92C177.156 239.689 177.345 239.573 177.615 239.573H178.433C178.637 239.573 178.768 239.627 178.822 239.731C178.876 239.839 178.865 239.982 178.78 240.167L173.615 251.292V258.609C173.615 258.729 173.576 258.825 173.499 258.902C173.418 258.976 173.326 259.014 173.214 259.014H172.242H172.238Z" fill="#F3B41B"/>
<path d="M190.348 257.487C190.46 257.487 190.553 257.525 190.634 257.599C190.715 257.672 190.753 257.764 190.753 257.876V258.613C190.753 258.733 190.715 258.829 190.634 258.906C190.557 258.98 190.46 259.018 190.348 259.018H181.823C181.712 259.018 181.619 258.98 181.538 258.906C181.461 258.833 181.418 258.737 181.418 258.613V239.978C181.418 239.858 181.457 239.762 181.538 239.685C181.615 239.611 181.712 239.573 181.823 239.573H190.156C190.275 239.573 190.372 239.611 190.449 239.685C190.522 239.758 190.561 239.854 190.561 239.978V240.715C190.561 240.827 190.522 240.919 190.449 240.992C190.375 241.066 190.279 241.104 190.156 241.104H183.197V248.24H189.654C189.766 248.24 189.858 248.279 189.94 248.36C190.021 248.441 190.059 248.534 190.059 248.646V249.367C190.059 249.479 190.021 249.571 189.94 249.652C189.862 249.729 189.766 249.772 189.654 249.772H183.197V257.494H190.348V257.487Z" fill="#F3B41B"/>
<path d="M198.665 250.682H195.305V258.613C195.305 258.733 195.267 258.829 195.193 258.906C195.12 258.983 195.024 259.018 194.9 259.018H193.928C193.816 259.018 193.724 258.98 193.643 258.906C193.565 258.833 193.523 258.737 193.523 258.613V239.978C193.523 239.858 193.562 239.762 193.643 239.685C193.72 239.611 193.816 239.573 193.928 239.573H198.163C199.004 239.573 199.764 239.696 200.439 239.947C201.114 240.198 201.689 240.56 202.16 241.039C202.63 241.517 202.997 242.099 203.251 242.79C203.506 243.48 203.633 244.26 203.633 245.131C203.633 246.474 203.348 247.589 202.773 248.48C202.198 249.367 201.392 249.992 200.358 250.354L204.204 258.451C204.289 258.617 204.297 258.756 204.231 258.86C204.166 258.968 204.038 259.018 203.842 259.018H203.008C202.711 259.018 202.507 258.887 202.399 258.629L198.665 250.686V250.682ZM201.832 245.128C201.832 243.831 201.519 242.836 200.895 242.142C200.27 241.448 199.34 241.1 198.109 241.1H195.305V249.155H198.109C199.34 249.155 200.27 248.808 200.895 248.113C201.519 247.419 201.832 246.424 201.832 245.128Z" fill="#F3B41B"/>
<path d="M206.133 258.667C205.909 258.575 205.809 258.424 205.828 258.208L205.882 257.332C205.89 257.174 205.952 257.07 206.064 257.012C206.175 256.958 206.31 256.97 206.465 257.055C206.955 257.305 207.464 257.491 207.992 257.61C208.521 257.73 209.065 257.791 209.632 257.791C210.199 257.791 210.746 257.707 211.202 257.533C211.657 257.363 212.035 257.116 212.34 256.796C212.644 256.476 212.876 256.09 213.034 255.635C213.192 255.18 213.269 254.667 213.269 254.092C213.269 253.028 212.999 252.148 212.455 251.454C211.915 250.759 211.055 250.165 209.878 249.675C209.138 249.371 208.505 249.027 207.984 248.649C207.46 248.271 207.032 247.847 206.692 247.384C206.353 246.921 206.106 246.416 205.948 245.872C205.79 245.324 205.712 244.722 205.712 244.067C205.712 243.334 205.832 242.67 206.075 242.072C206.314 241.475 206.658 240.965 207.101 240.545C207.545 240.124 208.089 239.8 208.725 239.573C209.365 239.345 210.083 239.233 210.878 239.233C211.433 239.233 211.962 239.28 212.459 239.372C212.961 239.465 213.431 239.6 213.875 239.773C214.099 239.866 214.199 240.02 214.18 240.232L214.137 241.039C214.129 241.197 214.068 241.301 213.956 241.351C213.844 241.401 213.709 241.39 213.555 241.316C213.165 241.131 212.756 240.996 212.324 240.915C211.892 240.834 211.456 240.792 211.013 240.792C209.894 240.792 209.03 241.081 208.424 241.66C207.819 242.238 207.514 243.033 207.514 244.04C207.514 244.549 207.579 245.008 207.707 245.413C207.834 245.822 208.038 246.192 208.316 246.524C208.594 246.856 208.941 247.164 209.365 247.446C209.786 247.727 210.287 247.997 210.874 248.26C211.607 248.584 212.235 248.939 212.764 249.321C213.292 249.706 213.728 250.134 214.068 250.605C214.411 251.076 214.662 251.596 214.824 252.16C214.986 252.723 215.067 253.348 215.067 254.034C215.067 254.868 214.947 255.612 214.704 256.272C214.461 256.931 214.11 257.483 213.643 257.938C213.177 258.393 212.602 258.74 211.923 258.98C211.244 259.219 210.469 259.342 209.597 259.342C209.003 259.342 208.409 259.284 207.807 259.169C207.205 259.053 206.646 258.883 206.125 258.663L206.133 258.667Z" fill="#F3B41B"/>
<path d="M225.91 241.988V258.609C225.91 258.729 225.871 258.825 225.79 258.902C225.713 258.976 225.617 259.014 225.505 259.014H224.587C224.467 259.014 224.371 258.976 224.294 258.902C224.22 258.829 224.182 258.733 224.182 258.609V239.974C224.182 239.854 224.22 239.758 224.294 239.681C224.367 239.604 224.463 239.569 224.587 239.569H226.307C226.465 239.569 226.589 239.604 226.674 239.673C226.762 239.743 226.828 239.843 226.874 239.97L233.652 256.592V239.97C233.652 239.851 233.69 239.754 233.771 239.677C233.849 239.604 233.945 239.565 234.057 239.565H234.975C235.094 239.565 235.191 239.604 235.268 239.677C235.341 239.75 235.38 239.847 235.38 239.97V258.605C235.38 258.725 235.341 258.821 235.268 258.899C235.195 258.972 235.098 259.01 234.975 259.01H233.254C233.096 259.01 232.973 258.976 232.888 258.906C232.799 258.837 232.734 258.737 232.687 258.609L225.91 241.988Z" fill="#F3B41B"/>
<path d="M248.198 257.487C248.31 257.487 248.403 257.525 248.484 257.599C248.565 257.672 248.603 257.764 248.603 257.876V258.613C248.603 258.733 248.565 258.829 248.484 258.906C248.406 258.98 248.31 259.018 248.198 259.018H239.673C239.561 259.018 239.469 258.98 239.388 258.906C239.311 258.833 239.268 258.737 239.268 258.613V239.978C239.268 239.858 239.307 239.762 239.388 239.685C239.465 239.611 239.561 239.573 239.673 239.573H248.005C248.125 239.573 248.221 239.611 248.298 239.685C248.372 239.758 248.41 239.854 248.41 239.978V240.715C248.41 240.827 248.372 240.919 248.298 240.992C248.225 241.066 248.129 241.104 248.005 241.104H241.046V248.24H247.504C247.616 248.24 247.708 248.279 247.789 248.36C247.87 248.441 247.909 248.534 247.909 248.646V249.367C247.909 249.479 247.87 249.571 247.789 249.652C247.712 249.729 247.616 249.772 247.504 249.772H241.046V257.494H248.198V257.487Z" fill="#F3B41B"/>
<path d="M254.154 241.1H249.973C249.861 241.1 249.764 241.066 249.687 240.988C249.61 240.915 249.568 240.823 249.568 240.711V239.974C249.568 239.854 249.606 239.758 249.687 239.681C249.764 239.608 249.861 239.569 249.973 239.569H260.11C260.222 239.569 260.314 239.608 260.395 239.681C260.472 239.754 260.515 239.851 260.515 239.974V240.711C260.515 240.823 260.476 240.915 260.395 240.988C260.314 241.062 260.222 241.1 260.11 241.1H255.928V258.613C255.928 258.733 255.89 258.829 255.809 258.906C255.732 258.98 255.635 259.018 255.523 259.018H254.551C254.439 259.018 254.347 258.98 254.266 258.906C254.189 258.833 254.146 258.736 254.146 258.613V241.1H254.154Z" fill="#F3B41B"/>
<path d="M272.234 239.573C272.365 239.573 272.469 239.611 272.546 239.685C272.623 239.758 272.673 239.851 272.693 239.962L275.732 257.155L279.289 239.962C279.308 239.851 279.355 239.758 279.436 239.685C279.513 239.611 279.617 239.573 279.748 239.573H280.705C280.851 239.573 280.963 239.619 281.036 239.712C281.11 239.804 281.133 239.92 281.106 240.059L277.094 258.613C277.029 258.883 276.87 259.014 276.623 259.014H274.803C274.544 259.014 274.386 258.879 274.332 258.613L271.485 242.462L268.639 258.613C268.585 258.883 268.426 259.014 268.168 259.014H266.347C266.097 259.014 265.938 258.879 265.877 258.613L261.865 240.059C261.838 239.92 261.861 239.804 261.934 239.712C262.008 239.619 262.12 239.573 262.266 239.573H263.223C263.354 239.573 263.458 239.611 263.535 239.685C263.612 239.758 263.663 239.851 263.682 239.962L267.238 257.155L270.278 239.962C270.297 239.851 270.344 239.758 270.425 239.685C270.502 239.611 270.606 239.573 270.737 239.573H272.238H272.234Z" fill="#F3B41B"/>
<path d="M288.844 259.346C287.787 259.346 286.861 259.122 286.066 258.671C285.272 258.224 284.604 257.568 284.068 256.711C283.532 255.855 283.127 254.806 282.861 253.56C282.591 252.314 282.46 250.891 282.46 249.29C282.46 247.689 282.595 246.277 282.869 245.035C283.142 243.789 283.548 242.736 284.084 241.876C284.62 241.016 285.287 240.36 286.082 239.912C286.876 239.465 287.798 239.237 288.844 239.237C289.889 239.237 290.811 239.461 291.606 239.912C292.4 240.36 293.068 241.016 293.604 241.876C294.14 242.736 294.545 243.789 294.819 245.035C295.093 246.281 295.228 247.7 295.228 249.29C295.228 250.879 295.093 252.314 294.827 253.56C294.557 254.806 294.155 255.855 293.619 256.711C293.083 257.568 292.416 258.22 291.621 258.671C290.826 259.118 289.901 259.346 288.844 259.346ZM288.844 257.791C290.344 257.791 291.482 257.097 292.261 255.709C293.041 254.32 293.426 252.183 293.426 249.294C293.426 246.404 293.037 244.291 292.261 242.89C291.482 241.494 290.344 240.792 288.844 240.792C287.343 240.792 286.205 241.49 285.426 242.89C284.647 244.287 284.261 246.424 284.261 249.294C284.261 252.164 284.651 254.32 285.426 255.709C286.205 257.097 287.343 257.791 288.844 257.791Z" fill="#F3B41B"/>
<path d="M303.286 250.682H299.926V258.613C299.926 258.733 299.888 258.829 299.814 258.906C299.741 258.983 299.645 259.018 299.521 259.018H298.549C298.437 259.018 298.345 258.98 298.264 258.906C298.186 258.833 298.144 258.737 298.144 258.613V239.978C298.144 239.858 298.183 239.762 298.264 239.685C298.341 239.611 298.437 239.573 298.549 239.573H302.785C303.625 239.573 304.385 239.696 305.06 239.947C305.735 240.198 306.31 240.56 306.781 241.039C307.251 241.517 307.618 242.099 307.872 242.79C308.127 243.48 308.254 244.26 308.254 245.131C308.254 246.474 307.969 247.589 307.394 248.48C306.819 249.367 306.013 249.992 304.979 250.354L308.825 258.451C308.91 258.617 308.918 258.756 308.852 258.86C308.787 258.968 308.659 259.018 308.463 259.018H307.629C307.332 259.018 307.128 258.887 307.02 258.629L303.286 250.686V250.682ZM306.453 245.128C306.453 243.831 306.14 242.836 305.516 242.142C304.891 241.448 303.961 241.1 302.731 241.1H299.926V249.155H302.731C303.961 249.155 304.891 248.808 305.516 248.113C306.14 247.419 306.453 246.424 306.453 245.128Z" fill="#F3B41B"/>
<path d="M312.949 248.989V258.613C312.949 258.733 312.91 258.829 312.829 258.906C312.752 258.98 312.656 259.018 312.544 259.018H311.572C311.46 259.018 311.367 258.98 311.286 258.906C311.209 258.833 311.167 258.737 311.167 258.613V239.978C311.167 239.858 311.205 239.762 311.286 239.685C311.363 239.611 311.46 239.573 311.572 239.573H312.544C312.656 239.573 312.748 239.611 312.829 239.685C312.906 239.758 312.949 239.854 312.949 239.978V248.406L318.99 239.881C319.136 239.677 319.341 239.577 319.599 239.577H320.517C320.71 239.577 320.833 239.631 320.884 239.743C320.934 239.854 320.911 239.982 320.806 240.132L314.723 248.657L321.709 258.463C321.809 258.609 321.836 258.74 321.786 258.852C321.736 258.964 321.613 259.018 321.42 259.018H320.394C320.135 259.018 319.931 258.918 319.784 258.713L312.953 248.993L312.949 248.989Z" fill="#F3B41B"/>
<g filter="url(#filter0_d_22_941)">
<path d="M138.64 159.003C143.546 164.118 145.996 171.204 145.996 180.257V222.392H125.243V183.779C125.243 179.17 124.132 175.648 121.91 173.214C119.688 170.784 116.394 169.565 112.039 169.565C107.34 169.565 103.444 171.285 100.343 174.722C97.2417 178.163 95.691 182.564 95.691 187.93V222.392H74.9381V129.575H95.691V161.395C98.372 158.293 101.643 155.84 105.5 154.038C109.358 152.237 113.717 151.334 118.581 151.334C127.048 151.334 133.737 153.892 138.64 159.007V159.003Z" fill="#397B96"/>
<path d="M220.768 155.859C226.257 158.879 230.577 163.092 233.721 168.5C236.865 173.908 238.439 180.091 238.439 187.05C238.439 194.009 236.784 200.424 233.47 206.04C230.157 211.661 225.547 216.039 219.634 219.183C213.72 222.326 207.036 223.9 199.575 223.9C192.115 223.9 185.426 222.307 179.517 219.121C173.607 215.935 168.994 211.491 165.68 205.79C162.367 200.088 160.712 193.589 160.712 186.294V129.571H181.715V158.12C184.566 155.94 187.752 154.262 191.274 153.09C194.796 151.917 198.484 151.331 202.341 151.331C209.134 151.331 215.275 152.839 220.768 155.859ZM212.59 200.949C215.9 197.554 217.559 193.087 217.559 187.556C217.559 182.024 215.881 177.557 212.528 174.163C209.173 170.768 204.856 169.067 199.575 169.067C194.294 169.067 189.993 170.745 186.684 174.097C183.37 177.453 181.715 181.854 181.715 187.301C181.715 192.748 183.393 197.446 186.745 200.883C190.098 204.324 194.418 206.04 199.699 206.04C204.98 206.04 209.277 204.343 212.59 200.949Z" fill="#397B96"/>
<path d="M270.004 222.392H249.251V188.308C249.251 180.932 250.74 174.452 253.718 168.878C256.692 163.304 260.866 158.984 266.231 155.925C271.597 152.866 277.719 151.334 284.593 151.334C291.467 151.334 297.716 152.866 303.081 155.925C308.447 158.988 312.617 163.304 315.595 168.878C318.569 174.456 320.062 180.932 320.062 188.308V222.392H299.309V185.291C299.309 180.512 297.943 176.612 295.22 173.596C292.493 170.575 288.952 169.067 284.593 169.067C280.234 169.067 276.816 170.575 274.089 173.596C271.362 176.616 270 180.512 270 185.291V222.392H270.004Z" fill="#397B96"/>
<path d="M138.64 159.003C143.546 164.118 145.996 171.204 145.996 180.257V222.392H125.243V183.779C125.243 179.17 124.132 175.648 121.91 173.214C119.688 170.784 116.394 169.565 112.039 169.565C107.34 169.565 103.444 171.285 100.343 174.722C97.2417 178.163 95.691 182.564 95.691 187.93V222.392H74.9381V129.575H95.691V161.395C98.372 158.293 101.643 155.84 105.5 154.038C109.358 152.237 113.717 151.334 118.581 151.334C127.048 151.334 133.737 153.892 138.64 159.007V159.003Z" fill="url(#paint0_linear_22_941)"/>
<path d="M220.768 155.859C226.257 158.879 230.577 163.092 233.721 168.5C236.865 173.908 238.439 180.091 238.439 187.05C238.439 194.009 236.784 200.424 233.47 206.04C230.157 211.661 225.547 216.039 219.634 219.183C213.72 222.326 207.036 223.9 199.575 223.9C192.115 223.9 185.426 222.307 179.517 219.121C173.607 215.935 168.994 211.491 165.68 205.79C162.367 200.088 160.712 193.589 160.712 186.294V129.571H181.715V158.12C184.566 155.94 187.752 154.262 191.274 153.09C194.796 151.917 198.484 151.331 202.341 151.331C209.134 151.331 215.275 152.839 220.768 155.859ZM212.59 200.949C215.9 197.554 217.559 193.087 217.559 187.556C217.559 182.024 215.881 177.557 212.528 174.163C209.173 170.768 204.856 169.067 199.575 169.067C194.294 169.067 189.993 170.745 186.684 174.097C183.37 177.453 181.715 181.854 181.715 187.301C181.715 192.748 183.393 197.446 186.745 200.883C190.098 204.324 194.418 206.04 199.699 206.04C204.98 206.04 209.277 204.343 212.59 200.949Z" fill="url(#paint1_linear_22_941)"/>
<path d="M270.004 222.392H249.251V188.308C249.251 180.932 250.74 174.452 253.718 168.878C256.692 163.304 260.866 158.984 266.231 155.925C271.597 152.866 277.719 151.334 284.593 151.334C291.467 151.334 297.716 152.866 303.081 155.925C308.447 158.988 312.617 163.304 315.595 168.878C318.569 174.456 320.062 180.932 320.062 188.308V222.392H299.309V185.291C299.309 180.512 297.943 176.612 295.22 173.596C292.493 170.575 288.952 169.067 284.593 169.067C280.234 169.067 276.816 170.575 274.089 173.596C271.362 176.616 270 180.512 270 185.291V222.392H270.004Z" fill="url(#paint2_linear_22_941)"/>
</g>
</g>
<defs>
<filter id="filter0_d_22_941" x="70.9381" y="129.571" width="253.124" height="102.329" filterUnits="userSpaceOnUse" color-interpolation-filters="sRGB">
<feFlood flood-opacity="0" result="BackgroundImageFix"/>
<feColorMatrix in="SourceAlpha" type="matrix" values="0 0 0 0 0 0 0 0 0 0 0 0 0 0 0 0 0 0 127 0" result="hardAlpha"/>
<feOffset dy="4"/>
<feGaussianBlur stdDeviation="2"/>
<feComposite in2="hardAlpha" operator="out"/>
<feColorMatrix type="matrix" values="0 0 0 0 0 0 0 0 0 0 0 0 0 0 0 0 0 0 0.25 0"/>
<feBlend mode="normal" in2="BackgroundImageFix" result="effect1_dropShadow_22_941"/>
<feBlend mode="normal" in="SourceGraphic" in2="effect1_dropShadow_22_941" result="shape"/>
</filter>
<linearGradient id="paint0_linear_22_941" x1="74.9343" y1="176.736" x2="320.062" y2="176.736" gradientUnits="userSpaceOnUse">
<stop stop-color="#5D60AB"/>
<stop offset="1" stop-color="#7F7FB2"/>
</linearGradient>
<linearGradient id="paint1_linear_22_941" x1="74.9342" y1="176.736" x2="320.062" y2="176.736" gradientUnits="userSpaceOnUse">
<stop stop-color="#5D60AB"/>
<stop offset="1" stop-color="#7F7FB2"/>
</linearGradient>
<linearGradient id="paint2_linear_22_941" x1="74.9342" y1="176.736" x2="320.062" y2="176.736" gradientUnits="userSpaceOnUse">
<stop stop-color="#5D60AB"/>
<stop offset="1" stop-color="#7F7FB2"/>
</linearGradient>
<clipPath id="clip0_22_941">
<rect width="395" height="395" fill="white"/>
</clipPath>
</defs>
</svg>
