<svg width="22" height="22" viewBox="0 0 22 22" fill="none" xmlns="http://www.w3.org/2000/svg">
<path d="M9.11703 16.6663V13.9137C9.11703 13.631 9.54714 13.631 9.54714 13.9137V16.4519H14.4727C15.1997 16.4519 15.586 15.5641 15.0609 15.0391C14.9088 14.8878 14.7004 14.7929 14.4714 14.7907L11.122 14.7602C10.9879 14.7649 10.8903 14.6687 10.8903 14.5458V13.1721C10.8903 11.7898 9.94503 10.2695 8.43855 10.2695L7.84644 10.273L6.8805 11.1169C6.57586 11.3824 6.12769 11.3824 5.82347 11.1169L4.88074 10.2949L4.26929 10.2996C1.6005 10.3348 0.501793 14.5093 1.60437 16.1154C1.90902 16.5589 2.39629 16.7939 3.08164 16.6598V13.9133C3.08164 13.6305 3.51175 13.6305 3.51175 13.9133V17.7684C3.51175 18.0825 3.76871 18.3395 4.08281 18.3395H8.54554C8.86093 18.3395 9.1166 18.0825 9.1166 17.7684V16.6663H9.11703ZM7.89027 5.88199C7.04121 5.03293 5.66363 5.03293 4.81371 5.88199C3.96464 6.73235 3.96464 8.10992 4.81371 8.95856C5.66406 9.80891 7.04164 9.80891 7.89027 8.95856C8.74062 8.10992 8.74062 6.73235 7.89027 5.88199ZM15.057 4.36692L13.0487 5.84805C13.0414 5.85406 13.0328 5.86008 13.0255 5.86653L11.9109 6.68766C11.9036 6.69367 11.8962 6.69969 11.8877 6.70485L11.0364 7.33348H12.7088L15.3432 5.38957L17.9776 7.33348H19.65L15.6414 4.37594C15.4674 4.24145 15.2349 4.23543 15.057 4.36692ZM18.2019 7.76274H17.9084L17.7817 7.7202L15.3432 5.92238L12.9047 7.7202L12.778 7.76274H12.4845V12.6543H18.2019V7.76274ZM11.9878 6.0977L12.6942 5.57649V4.85418H11.9878V6.0977ZM16.0341 8.06223C16.1755 7.81731 16.5468 8.03301 16.4058 8.27664L14.6531 11.312C14.5118 11.5569 14.1405 11.3425 14.2814 11.0975L16.0341 8.06223ZM15.1692 8.12711C15.1133 7.92 14.8233 7.84824 14.6892 8.07856C14.593 8.24313 14.7489 8.50738 14.9866 8.44379C15.0527 8.42587 15.109 8.38249 15.1432 8.32315C15.1775 8.2638 15.1868 8.19332 15.1692 8.12711ZM15.2422 7.58871C15.4042 7.65918 15.5396 7.85039 15.5834 8.01625C15.7407 8.6032 15.1073 9.0952 14.5762 8.7884C14.0451 8.48289 14.1573 7.68711 14.7429 7.53027C14.9049 7.48731 15.0828 7.5032 15.2422 7.58871ZM16.0157 11.1134C15.9559 10.8917 15.6577 10.8539 15.543 11.0511C15.4296 11.2471 15.61 11.4894 15.833 11.4288C15.9705 11.3923 16.0522 11.2522 16.0157 11.1134ZM16.1106 10.5862C16.6391 10.8917 16.5334 11.6862 15.9439 11.8443C15.3569 12.0016 14.8658 11.367 15.1718 10.8372C15.3617 10.508 15.7806 10.3959 16.1106 10.5862Z" fill="#6E6D6A"/>
</svg>
